<?xml version="1.0" encoding="UTF-8"?>
<svg width="30px" height="30px" viewBox="0 0 30 30" version="1.1" xmlns="http://www.w3.org/2000/svg" xmlns:xlink="http://www.w3.org/1999/xlink">
    <!-- Generator: Sketch 43.1 (39012) - http://www.bohemiancoding.com/sketch -->
    <title>mbri-bootstrap</title>
    <desc>Created with Sketch.</desc>
    <defs></defs>
    <g id="Page-1" stroke="none" stroke-width="1" fill="none" fill-rule="evenodd">
        <g id="mbri-bootstrap" fill-rule="nonzero" fill="#FFFFFF">
            <path d="M12.5,15 C12.2238576,15 12,15.2238576 12,15.5 L12,20.5 C12,20.7761424 12.2238576,21 12.5,21 L14.5,21 C15.323,21 16.17,20.827 16.85,20.35 C17.53,19.872 18,19.057 18,18 C18,16.943 17.53,16.128 16.85,15.65 C16.17,15.173 15.323,15 14.5,15 L12.5,15 L12.5,15 Z M13,16 L14.5,16 C15.177,16 15.83,16.157 16.275,16.47 C16.72,16.78 17,17.214 17,18 C17,18.786 16.72,19.22 16.275,19.53 C15.831,19.843 15.177,20 14.5,20 L13,20 L13,16 Z M10.5,7 C10.224,7 10,7.224 10,7.5 L10,22.5 C10,22.776 10.224,23 10.5,23 L15,23 C16.64,23 17.92,22.3 18.754,21.326 C19.588,20.353 20,19.126 20,18 C20,15.9 18.734,14.812 18.222,14.436 C18.365,14.246 18.318,14.318 18.442,14.088 C18.732,13.548 19,12.708 19,11.5 C19,10.417 18.733,9.297 18.01,8.43 C17.287,7.562 16.11,7 14.5,7 L10.5,7 Z M11,8 L14.5,8 C15.89,8 16.713,8.438 17.24,9.07 C17.767,9.703 18,10.583 18,11.5 C18,12.56 17.77,13.223 17.56,13.615 C17.35,14.007 17.205,14.095 17.205,14.095 C16.918,14.305 16.935,14.74 17.238,14.925 C17.238,14.925 19,16.025 19,18 C19,18.875 18.662,19.897 17.996,20.674 C17.33,21.45 16.36,22 15,22 L11,22 L11,8 Z M12.5,9 C12.2238576,9 12,9.22385763 12,9.5 L12,13.5 C12,13.7761424 12.2238576,14 12.5,14 L14.5,14 C15.36,14 16.037,13.688 16.447,13.195 C16.857,12.703 17,12.083 17,11.5 C17,10.917 16.858,10.297 16.447,9.805 C16.037,9.312 15.36,9 14.5,9 L12.5,9 Z M13,10 L14.5,10 C15.14,10 15.463,10.188 15.678,10.445 C15.892,10.703 16,11.083 16,11.5 C16,11.917 15.892,12.297 15.678,12.555 C15.463,12.812 15.138,13 14.5,13 L13,13 L13,10 Z M1.5,0 C0.678,0 0,0.678 0,1.5 L0,28.5 C0,29.322 0.678,30 1.5,30 L28.5,30 C29.322,30 30,29.322 30,28.5 L30,1.5 C30,0.678 29.322,0 28.5,0 L1.5,0 Z M1.5,1 L28.5,1 C28.786,1 29,1.214 29,1.5 L29,28.5 C29,28.786 28.786,29 28.5,29 L1.5,29 C1.214,29 1,28.786 1,28.5 L1,1.5 C1,1.214 1.214,1 1.5,1 Z" id="Shape"></path>
        </g>
    </g>
</svg>