<?xml version="1.0" encoding="UTF-8"?>
<svg width="30px" height="30px" viewBox="0 0 30 30" version="1.1" xmlns="http://www.w3.org/2000/svg" xmlns:xlink="http://www.w3.org/1999/xlink">
    <!-- Generator: Sketch 43.1 (39012) - http://www.bohemiancoding.com/sketch -->
    <title>Shape</title>
    <desc>Created with Sketch.</desc>
    <defs></defs>
    <g id="Page-1" stroke="none" stroke-width="1" fill="none" fill-rule="evenodd">
        <g id="mbri-info" fill-rule="nonzero" fill="#FFFFFF">
            <path d="M15,6 C13.9,6 13,6.9 13,8 C13,9.1 13.9,10 15,10 C16.1,10 17,9.1 17,8 C17,6.9 16.1,6 15,6 Z M15,7 C15.563,7 16,7.437 16,8 C16,8.563 15.563,9 15,9 C14.437,9 14,8.563 14,8 C14,7.437 14.437,7 15,7 Z M15,0 C6.722,0 0,6.722 0,15 C0,23.278 6.722,30 15,30 C23.278,30 30,23.278 30,15 C30,6.722 23.278,0 15,0 Z M15,1 C22.738,1 29,7.262 29,15 C29,22.738 22.738,29 15,29 C7.262,29 1,22.738 1,15 C1,7.262 7.262,1 15,1 Z M15,11 C13.9,11 13,11.9 13,13 L13,22 C13,23.1 13.9,24 15,24 C16.1,24 17,23.1 17,22 L17,13 C17,11.9 16.1,11 15,11 Z M15,12 C15.563,12 16,12.437 16,13 L16,22 C16,22.563 15.563,23 15,23 C14.437,23 14,22.563 14,22 L14,13 C14,12.437 14.437,12 15,12 Z" id="Shape"></path>
        </g>
    </g>
</svg>