<?xml version="1.0" encoding="UTF-8"?>
<svg width="27px" height="14px" viewBox="0 0 27 14" version="1.1" xmlns="http://www.w3.org/2000/svg" xmlns:xlink="http://www.w3.org/1999/xlink">
    <!-- Generator: Sketch 48.2 (47327) - http://www.bohemiancoding.com/sketch -->
    <title>Group</title>
    <desc>Created with Sketch.</desc>
    <defs></defs>
    <g id="Page-1" stroke="none" stroke-width="1" fill="none" fill-rule="evenodd">
        <g id="Group" fill-rule="nonzero">
            <g>
                <rect id="Rectangle-path" fill="#FFFFFF" x="6.76363636" y="0.625" width="13.4909091" height="13.25"></rect>
                <rect id="Rectangle-path" fill="#DAEAE7" x="6.76363636" y="7.375" width="13.4909091" height="6.625"></rect>
                <polyline id="Shape" fill="#EE3725" points="6.76363636 0.625 20.2545455 0.625 13.5090909 7.25 6.76363636 0.625"></polyline>
                <polyline id="Shape" fill="#EE3725" points="6.76363636 13.875 20.2545455 13.875 13.5090909 7.25 6.76363636 13.875"></polyline>
                <polyline id="Shape" fill="#FF6700" points="6.76363636 0.625 6.76363636 13.875 0.0181818182 7.25 6.76363636 0.625"></polyline>
                <polyline id="Shape" fill="#EE3725" points="6.76363636 3.125 6.76363636 13.875 0.0181818182 7.25 6.76363636 3.125"></polyline>
                <polyline id="Shape" fill="#FF6700" points="20.2545455 0.625 20.2545455 13.875 27 7.25 20.2545455 0.625"></polyline>
                <polyline id="Shape" fill="#EE3725" points="20.2545455 3.125 20.2545455 13.875 27 7.25 20.2545455 3.125"></polyline>
            </g>
            <polygon id="Shape" fill="#FF6700" points="9.33018868 3 17.6698113 3 20 1 7 1"></polygon>
            <polygon id="Shape" fill="#D60F05" points="20 11 20 14 23 11"></polygon>
            <polygon id="Shape" fill="#D60F05" points="7 14 20 14 17.0566038 11 9.94339623 11"></polygon>
            <polygon id="Shape" fill="#D60F05" points="4 11 7 14 7 11"></polygon>
        </g>
    </g>
</svg>