<?xml version="1.0" encoding="utf-8"?>
<!-- Generator: Adobe Illustrator 21.1.0, SVG Export Plug-In . SVG Version: 6.00 Build 0)  -->
<svg version="1.1" id="Shape_215_copy_4_1_" xmlns="http://www.w3.org/2000/svg" xmlns:xlink="http://www.w3.org/1999/xlink"
	 x="0px" y="0px" viewBox="0 0 67 67" style="enable-background:new 0 0 67 67;" xml:space="preserve">
<style type="text/css">
	.st0{fill-rule:evenodd;clip-rule:evenodd;fill:#939daa;}
</style>
<g id="Shape_215_copy_4">
	<g>
		<path class="st0" d="M63,0H4C1.8,0,0,1.8,0,4v59c0,2.2,1.8,4,4,4h59c2.2,0,4-1.8,4-4V4C67,1.8,65.2,0,63,0z M65,62
			c0,1.7-1.3,3-3,3H5c-1.7,0-3-1.3-3-3V5c0-1.7,1.3-3,3-3h57c1.7,0,3,1.3,3,3V62z"/>
	</g>
</g>
</svg>
