<?xml version="1.0" encoding="utf-8"?>
<!-- Generator: Adobe Illustrator 21.1.0, SVG Export Plug-In . SVG Version: 6.00 Build 0)  -->
<svg version="1.1" id="Shape_219_1_" xmlns="http://www.w3.org/2000/svg" xmlns:xlink="http://www.w3.org/1999/xlink" x="0px"
	 y="0px" viewBox="0 0 67 54" style="enable-background:new 0 0 67 54;" xml:space="preserve">
<style type="text/css">
	.st0{fill-rule:evenodd;clip-rule:evenodd;fill:#939daa;}
</style>
<g id="Shape_219">
	<g>
		<path class="st0" d="M67,6.4c-2.5,1.1-5.1,1.8-7.9,2.1c2.8-1.7,5-4.4,6-7.5c-2.7,1.6-5.6,2.7-8.7,3.3C53.9,1.7,50.3,0,46.4,0
			c-7.6,0-13.7,6.1-13.7,13.6c0,1.1,0.1,2.1,0.4,3.1c-11.4-0.6-21.6-6-28.3-14.2c-1.2,2-1.9,4.4-1.9,6.8c0,4.7,2.4,8.9,6.1,11.3
			C6.7,20.6,4.5,20,2.7,19c0,0.1,0,0.1,0,0.2c0,6.6,4.7,12.1,11,13.4c-1.2,0.3-2.4,0.5-3.6,0.5c-0.9,0-1.7-0.1-2.6-0.2
			c1.8,5.4,6.8,9.4,12.8,9.5c-4.7,3.7-10.6,5.8-17.1,5.8c-1.1,0-2.2-0.1-3.3-0.2C6.1,51.7,13.3,54,21.1,54
			c25.3,0,39.1-20.8,39.1-38.8c0-0.6,0-1.2,0-1.8C62.8,11.5,65.2,9.1,67,6.4z"/>
	</g>
</g>
</svg>
