<?xml version="1.0" encoding="utf-8"?>
<!-- Generator: Adobe Illustrator 21.1.0, SVG Export Plug-In . SVG Version: 6.00 Build 0)  -->
<svg version="1.1" id="Shape_221_1_" xmlns="http://www.w3.org/2000/svg" xmlns:xlink="http://www.w3.org/1999/xlink" x="0px"
	 y="0px" viewBox="0 0 67 49" style="enable-background:new 0 0 67 49;" xml:space="preserve">
<style type="text/css">
	.st0{fill-rule:evenodd;clip-rule:evenodd;fill:#939daa;}
</style>
<g id="Shape_221">
	<g>
		<path class="st0" d="M65.1,8.4c-0.6-3.4-3.6-5.8-7-6.6C53,0.8,43.5,0,33.2,0C23,0,13.3,0.8,8.2,1.8c-3.4,0.8-6.4,3.1-7,6.6
			C0.6,12.2,0,17.6,0,24.5c0,6.9,0.6,12.3,1.4,16.1c0.6,3.4,3.6,5.8,7,6.6c5.4,1.1,14.8,1.8,25.1,1.8c10.3,0,19.6-0.8,25.1-1.8
			c3.4-0.8,6.4-3.1,7-6.6c0.6-3.8,1.4-9.3,1.6-16.1C66.7,17.6,65.9,12.2,65.1,8.4z M24.8,35.2V13.8l19,10.7L24.8,35.2z"/>
	</g>
</g>
</svg>
