<?xml version="1.0" encoding="utf-8"?>
<!-- Generator: Adobe Illustrator 21.1.0, SVG Export Plug-In . SVG Version: 6.00 Build 0)  -->
<svg version="1.1" id="Shape_225_1_" xmlns="http://www.w3.org/2000/svg" xmlns:xlink="http://www.w3.org/1999/xlink" x="0px"
	 y="0px" viewBox="0 0 67 67" style="enable-background:new 0 0 67 67;" xml:space="preserve">
<style type="text/css">
	.st0{fill-rule:evenodd;clip-rule:evenodd;fill:#939daa;}
</style>
<g id="Shape_225">
	<g>
		<path class="st0" d="M67,31.5c0-0.6,0-1.2-0.1-1.8c-0.4-3.7-2-7.1-3.2-10.5c-2.6-7.2-9.7-13.9-17-16.4c-4.6-1.6-9-2.6-13.9-2.7h-1
			c-7.5,0.1-16.9,3.2-21.7,8.7C6.8,12.4,2.9,16.3,1.3,21c-0.5,1.5-0.9,3-1.3,4.6v16.7c0.5,2.1,1.3,4.1,2.3,6c0.9,1.8,2,3.6,3.3,5.1
			c1.5,1.8,3.3,3.2,4.9,4.8c1.5,1.5,2.6,2.7,4.4,3.8c1.1,0.7,3,2.2,4.2,2.2c0.2-1.1,0.2-2.3,0.2-3.3c-0.1-3.9,1.2-7.5,2.2-11.2
			c0.5-2,0.9-3.9,1.2-6c0.3-1.7,1-3.3,1.1-5c0.1-1.8-0.5-3.5-0.6-5.3c0-1.8,0-3.8,1-5.5c1.6-2.7,5.7-4.7,8.5-2.7
			c2.5,1.8,2.1,5.7,1.1,8.3c-0.7,1.8-1.2,3.4-1.6,5.3c-0.3,1.4-0.6,3.4-1.2,4.6c2,2,2.8,4,6,4c2.3,0,4.7-1.3,6-3.1
			c1.4-1.8,2.6-3.9,3.5-5.9c1.4-3.1,1.2-7.2,0.9-10.5c-0.3-3.3-2-6.3-4.7-8.2c-6.4-4.7-17-3.7-22.1,2.5c-3.1,3.7-4.6,8.8-4.1,13.6
			c0.2,1.6,1.6,2.7,2.3,4.1c0.7,1.3,0.6,4.3-0.6,5.3c-1.3,1.1-3.2-1-4.2-1.9c-2.7-2.5-3.9-5.6-4.4-9.2c-0.3-2-0.2-4.4,0.5-6.2
			c0.8-2.1,1.3-4.1,2.7-5.8c1.1-1.4,2.3-3,3.6-4.3c1.2-1.2,2.6-2,4.2-2.8c1.7-0.9,3.3-2,5.1-2.6c2-0.7,4-1,6.1-1.2
			c3.5-0.3,7.9-0.2,11.2,1.4c2.6,1.3,5.4,2.9,7.6,5c2.8,2.8,4.7,7.5,5.1,11.3c0.5,5-0.9,10.5-3,15c-2.2,5-8,9.1-13.6,9.4
			c-3.8,0.2-8.2-0.2-10.1-3.9c-0.2,1.8-1.5,6.7-2,8.5c-0.6,1.9-1.5,4-2.5,5.7c-0.1,0.1-0.1,0.2-0.2,0.3c-0.7,1.3-1.1,2.2,0.7,2.6
			c1.3,0.3,2.7,0.3,4,0.3h2.3c6.4-0.1,12.7-1.2,18.3-4.6c1.8-1.1,3.6-2.4,5.2-3.7C60.7,54,65,47.2,66,40.1c0.4-2.5,0.9-5.1,1-7.7
			V31.5z"/>
	</g>
</g>
</svg>
