<?xml version="1.0" encoding="utf-8"?>
<!-- Generator: Adobe Illustrator 21.1.0, SVG Export Plug-In . SVG Version: 6.00 Build 0)  -->
<svg version="1.1" id="Shape_228_1_" xmlns="http://www.w3.org/2000/svg" xmlns:xlink="http://www.w3.org/1999/xlink" x="0px"
	 y="0px" viewBox="0 0 67 67" style="enable-background:new 0 0 67 67;" xml:space="preserve">
<style type="text/css">
	.st0{fill-rule:evenodd;clip-rule:evenodd;fill:#939daa;}
</style>
<g id="Shape_228">
	<g>
		<path class="st0" d="M33.5,0C15,0,0,15,0,33.5C0,52,15,67,33.5,67C52,67,67,52,67,33.5C67,15,52,0,33.5,0z M33.5,65
			C16.1,65,2,50.9,2,33.5S16.1,2,33.5,2C50.9,2,65,16.1,65,33.5S50.9,65,33.5,65z M33.5,4C17.2,4,4,17.2,4,33.5
			C4,49.8,17.2,63,33.5,63C49.8,63,63,49.8,63,33.5C63,17.2,49.8,4,33.5,4z"/>
	</g>
</g>
</svg>
