<?xml version="1.0" encoding="utf-8"?>
<!-- Generator: Adobe Illustrator 21.1.0, SVG Export Plug-In . SVG Version: 6.00 Build 0)  -->
<svg version="1.1" id="Shape_223_1_" xmlns="http://www.w3.org/2000/svg" xmlns:xlink="http://www.w3.org/1999/xlink" x="0px"
	 y="0px" viewBox="0 0 68 67" style="enable-background:new 0 0 68 67;" xml:space="preserve">
<style type="text/css">
	.st0{fill-rule:evenodd;clip-rule:evenodd;fill:#939daa;}
</style>
<g id="Shape_223">
	<g>
		<path class="st0" d="M61.1,0H6.9C3.1,0,0,3.1,0,6.8v53.3C0,63.9,3.1,67,6.9,67h54.1c3.8,0,6.9-3.1,6.9-6.8V6.8
			C68,3.1,64.9,0,61.1,0z M21.1,54.2H12V25.3h9.1V54.2z M16.5,21.8c-2.9,0-4.7-2-4.7-4.5c0-2.5,1.9-4.5,4.9-4.5c2.9,0,4.7,2,4.8,4.5
			C21.4,19.7,19.5,21.8,16.5,21.8z M56.3,54.2h-9.1v-16c0-3.7-1.3-6.3-4.6-6.3c-2.5,0-4,1.7-4.7,3.4c-0.2,0.6-0.3,1.4-0.3,2.2v16.7
			h-9.1V34.5c0-3.6-0.1-6.6-0.2-9.2h7.9l0.4,4h0.2c1.2-1.9,4.1-4.7,9.1-4.7c6,0,10.5,4,10.5,12.5V54.2z"/>
	</g>
</g>
</svg>
