<?xml version="1.0" encoding="utf-8"?>
<!-- Generator: Adobe Illustrator 19.0.0, SVG Export Plug-In . SVG Version: 6.00 Build 0)  -->
<svg version="1.1" xmlns="http://www.w3.org/2000/svg" xmlns:xlink="http://www.w3.org/1999/xlink" x="0px" y="0px"
	 viewBox="0 0 80 80" style="enable-background:new 0 0 80 80;" xml:space="preserve">
<style type="text/css">
	.st0{fill:#FFFFFF;}
</style>
<g id="Layer_3">
</g>
<g id="Layer_5">
	<g>
		<g>
			<g>
				<path class="st0" d="M66.7,46.7h-6.6c-0.9,0-1.6,0.7-1.6,1.6v6.6c0,0.9,0.7,1.6,1.6,1.6h6.6c0.9,0,1.6-0.7,1.6-1.6v-6.6
					C68.3,47.4,67.6,46.7,66.7,46.7z"/>
				<path class="st0" d="M61.7,38.7h4.5c0.8,0,1.4-0.6,1.4-1.4v-4.5c0-0.8-0.6-1.4-1.4-1.4h-4.5c-0.8,0-1.4,0.6-1.4,1.4v4.5
					C60.3,38.1,60.9,38.7,61.7,38.7z"/>
				<path class="st0" d="M73,39.6h-3.7c-0.6,0-1,0.4-1,1v3.7c0,0.6,0.4,1,1,1H73c0.6,0,1-0.4,1-1v-3.7C74,40,73.6,39.6,73,39.6z"/>
				<path class="st0" d="M68.4,29.9H71c0.4,0,0.8-0.3,0.8-0.8v-2.7c0-0.4-0.3-0.8-0.8-0.8h-2.7c-0.4,0-0.8,0.3-0.8,0.8v2.7
					C67.6,29.5,67.9,29.9,68.4,29.9z"/>
			</g>
		</g>
		<path class="st0" d="M22.4,20.4L22.4,20.4c1.4,0,2.7,0.5,3.6,1.5l14.5,15.1c0.4,0.4,1.1,0.4,1.5,0l13.7-14.2
			c-5.1-6.4-13-10.6-21.8-10.6C18.5,12.2,6,24.6,6,40c0,15.4,12.5,27.8,27.8,27.8c7.2,0,13.8-2.8,18.7-7.3V41.3
			c0-0.5-0.6-0.7-0.9-0.4l-8.9,10.3c-0.8,0.9-2.3,0.9-3.1,0l-8.9-10.3c-0.3-0.3-0.9-0.1-0.9,0.4v19.9c-5.6,0-10.1-3.7-10.1-9.3V23
			C19.8,21.5,20.9,20.4,22.4,20.4z"/>
	</g>
</g>
</svg>
