<?xml version="1.0" encoding="UTF-8"?>
<svg width="30px" height="30px" viewBox="0 0 30 30" version="1.1" xmlns="http://www.w3.org/2000/svg" xmlns:xlink="http://www.w3.org/1999/xlink">
    <!-- Generator: Sketch 43.1 (39012) - http://www.bohemiancoding.com/sketch -->
    <title>Shape</title>
    <desc>Created with Sketch.</desc>
    <defs></defs>
    <g id="Page-1" stroke="none" stroke-width="1" fill="none" fill-rule="evenodd">
        <g id="mbri-extension" fill-rule="nonzero" fill="#FFFFFF">
            <path d="M23.56,0.436 C22.98,-0.144 22.02,-0.144 21.44,0.436 L15.436,6.44 C14.856,7.02 14.856,7.98 15.436,8.56 L21.44,14.565 C22.02,15.145 22.98,15.145 23.56,14.565 L29.565,8.561 C30.145,7.981 30.145,7.021 29.565,6.441 L23.56,0.436 Z M22.854,1.144 L28.857,7.147 C29.059,7.349 29.059,7.652 28.857,7.854 L22.854,13.858 C22.652,14.06 22.349,14.06 22.147,13.858 L16.143,7.854 C15.941,7.652 15.941,7.349 16.143,7.147 L22.147,1.144 C22.349,0.942 22.652,0.942 22.854,1.144 L22.854,1.144 Z M16.5,18 C15.678,18 15,18.678 15,19.5 L15,28.5 C15,29.322 15.678,30 16.5,30 L25.5,30 C26.322,30 27,29.322 27,28.5 L27,19.5 C27,18.678 26.322,18 25.5,18 L16.5,18 Z M16.5,19 L25.5,19 C25.786,19 26,19.214 26,19.5 L26,28.5 C26,28.786 25.786,29 25.5,29 L16.5,29 C16.214,29 16,28.786 16,28.5 L16,19.5 C16,19.214 16.214,19 16.5,19 Z M1.5,3 C0.678,3 0,3.678 0,4.5 L0,13.5 C0,14.322 0.678,15 1.5,15 L10.5,15 C11.322,15 12,14.322 12,13.5 L12,4.5 C12,3.678 11.322,3 10.5,3 L1.5,3 Z M1.5,4 L10.5,4 C10.786,4 11,4.214 11,4.5 L11,13.5 C11,13.786 10.786,14 10.5,14 L1.5,14 C1.214,14 1,13.786 1,13.5 L1,4.5 C1,4.214 1.214,4 1.5,4 Z M1.5,18 C0.678,18 0,18.678 0,19.5 L0,28.5 C0,29.322 0.678,30 1.5,30 L10.5,30 C11.322,30 12,29.322 12,28.5 L12,19.5 C12,18.678 11.322,18 10.5,18 L1.5,18 Z M1.5,19 L10.5,19 C10.786,19 11,19.214 11,19.5 L11,28.5 C11,28.786 10.786,29 10.5,29 L1.5,29 C1.214,29 1,28.786 1,28.5 L1,19.5 C1,19.214 1.214,19 1.5,19 Z" id="Shape"></path>
        </g>
    </g>
</svg>