<?xml version="1.0" encoding="UTF-8"?>
<svg width="30px" height="30px" viewBox="0 0 30 30" version="1.1" xmlns="http://www.w3.org/2000/svg" xmlns:xlink="http://www.w3.org/1999/xlink">
    <!-- Generator: Sketch 43.1 (39012) - http://www.bohemiancoding.com/sketch -->
    <title>Shape</title>
    <desc>Created with Sketch.</desc>
    <defs></defs>
    <g id="Page-1" stroke="none" stroke-width="1" fill="none" fill-rule="evenodd">
        <g id="mbri-layers" fill-rule="nonzero" fill="#FFFFFF">
            <path d="M25.5,6 C24.84,6 24.852,7 25.5,7 L28.5,7 C28.786,7 29,7.214 29,7.5 L29,28.5 C29,28.786 28.786,29 28.5,29 L7.5,29 C7.214,29 7,28.786 7,28.5 L7,25.5 C7,24.84 6,24.836 6,25.5 L6,28.5 C6,29.322 6.678,30 7.5,30 L28.5,30 C29.322,30 30,29.322 30,28.5 L30,7.5 C30,6.678 29.322,6 28.5,6 L25.5,6 Z M1.5,0 C0.678,0 0,0.678 0,1.5 L0,22.5 C0,23.322 0.678,24 1.5,24 L22.5,24 C23.322,24 24,23.322 24,22.5 L24,1.5 C24,0.678 23.322,0 22.5,0 L1.5,0 Z M1.5,1 L22.5,1 C22.786,1 23,1.214 23,1.5 L23,22.5 C23,22.786 22.786,23 22.5,23 L1.5,23 C1.214,23 1,22.786 1,22.5 L1,1.5 C1,1.214 1.214,1 1.5,1 Z" id="Shape"></path>
        </g>
    </g>
</svg>