<?xml version="1.0" encoding="UTF-8"?>
<svg width="18px" height="30px" viewBox="0 0 18 30" version="1.1" xmlns="http://www.w3.org/2000/svg" xmlns:xlink="http://www.w3.org/1999/xlink">
    <!-- Generator: Sketch 43.1 (39012) - http://www.bohemiancoding.com/sketch -->
    <title>Shape</title>
    <desc>Created with Sketch.</desc>
    <defs></defs>
    <g id="Page-1" stroke="none" stroke-width="1" fill="none" fill-rule="evenodd">
        <g id="mbri-speed" fill-rule="nonzero" fill="#FFFFFF">
            <path d="M5.5,0 C4.846,0 4.85,1 5.5,1 L12.342,1 C13.062,1 13.072,1.408 12.896,1.77 L9.056,9.27 C8.884,9.604 9.126,10 9.5,10 L16.572,10 C16.722,10 16.895,10.093 16.962,10.248 C17.032,10.403 17.057,10.691 16.674,11.198 L4.33,27.57 L5.994,17.582 C6.044,17.277 5.809,16.999 5.5,17 L1.54,17 C0.983,17 0.94,16.836 1.035,16.066 L2.995,1.566 C3.085,0.906 2.092,0.772 2.005,1.434 L0.043,15.934 C-0.032,16.49 -0.017,16.982 0.246,17.394 C0.51,17.807 1.014,18 1.539,18 L4.907,18 L3.006,29.418 C2.92,29.934 3.584,30.218 3.898,29.801 L17.473,11.801 C17.997,11.107 18.116,10.395 17.879,9.851 C17.639,9.307 17.109,9.001 16.571,9.001 L10.317,9.001 L13.784,2.231 C13.972,1.863 14.1,1.375 13.904,0.871 C13.707,0.363 13.12,0 12.34,0 L5.5,0 Z" id="Shape"></path>
        </g>
    </g>
</svg>