<?xml version="1.0" encoding="utf-8"?>
<!-- Generator: Adobe Illustrator 21.1.0, SVG Export Plug-In . SVG Version: 6.00 Build 0)  -->
<svg version="1.1" id="Shape_215_copy_5_1_" xmlns="http://www.w3.org/2000/svg" xmlns:xlink="http://www.w3.org/1999/xlink"
	 x="0px" y="0px" viewBox="0 0 68 67" style="enable-background:new 0 0 68 67;" xml:space="preserve">
<style type="text/css">
	.st0{fill-rule:evenodd;clip-rule:evenodd;fill:#939daa;}
</style>
<g id="Shape_215_copy_5">
	<g>
		<path class="st0" d="M64,0H4C1.8,0,0,1.8,0,4v59c0,2.2,1.8,4,4,4h60c2.2,0,4-1.8,4-4V4C68,1.8,66.2,0,64,0z M65,61
			c0,1.7-1.3,3-3,3H6c-1.7,0-3-1.3-3-3V6c0-1.7,1.3-3,3-3h56c1.7,0,3,1.3,3,3V61z"/>
	</g>
</g>
</svg>
