<?xml version="1.0" encoding="utf-8"?>
<!-- Generator: Adobe Illustrator 21.1.0, SVG Export Plug-In . SVG Version: 6.00 Build 0)  -->
<svg version="1.1" id="Shape_222_1_" xmlns="http://www.w3.org/2000/svg" xmlns:xlink="http://www.w3.org/1999/xlink" x="0px"
	 y="0px" viewBox="0 0 67 67" style="enable-background:new 0 0 67 67;" xml:space="preserve">
<style type="text/css">
	.st0{fill-rule:evenodd;clip-rule:evenodd;fill:#939daa;}
</style>
<g id="Shape_222">
	<g>
		<path class="st0" d="M33.5,22.3c-6.2,0-11.2,5-11.2,11.2c0,6.2,5,11.2,11.2,11.2c6.2,0,11.2-5,11.2-11.2
			C44.7,27.3,39.7,22.3,33.5,22.3z M48.4,0H18.6C8.3,0,0,8.3,0,18.6v29.8C0,58.7,8.3,67,18.6,67h29.8C58.7,67,67,58.7,67,48.4V18.6
			C67,8.3,58.7,0,48.4,0z M33.5,52.1c-10.3,0-18.6-8.3-18.6-18.6c0-10.3,8.3-18.6,18.6-18.6c10.3,0,18.6,8.3,18.6,18.6
			C52.1,43.8,43.8,52.1,33.5,52.1z M55.8,14.9c-2.1,0-3.7-1.7-3.7-3.7c0-2.1,1.7-3.7,3.7-3.7c2.1,0,3.7,1.7,3.7,3.7
			C59.6,13.2,57.9,14.9,55.8,14.9z"/>
	</g>
</g>
</svg>
