<?xml version="1.0" encoding="utf-8"?>
<!-- Generator: Adobe Illustrator 21.1.0, SVG Export Plug-In . SVG Version: 6.00 Build 0)  -->
<svg version="1.1" id="Shape_229_copy_1_" xmlns="http://www.w3.org/2000/svg" xmlns:xlink="http://www.w3.org/1999/xlink" x="0px"
	 y="0px" viewBox="0 0 68 67" style="enable-background:new 0 0 68 67;" xml:space="preserve">
<style type="text/css">
	.st0{fill-rule:evenodd;clip-rule:evenodd;fill:#939daa;}
</style>
<g id="Shape_229_copy">
	<g>
		<path class="st0" d="M68,33.5c0-4.9-2.8-9.1-6.9-11.3c1.1-4.2,0-8.9-3.3-12.2c-2.5-2.5-5.8-3.7-9-3.7c-1.1,0-2.2,0.1-3.3,0.4
			C43.3,2.8,39,0,34,0c-4.9,0-9.3,2.8-11.4,6.8c-1.1-0.3-2.2-0.4-3.3-0.4c-3.3,0-6.6,1.2-9,3.7c-3.3,3.3-4.4,8-3.3,12.2
			C2.8,24.4,0,28.6,0,33.5s2.8,9.1,6.9,11.3c-1.1,4.2,0,8.9,3.3,12.2c2.5,2.5,5.8,3.7,9,3.7c1.1,0,2.2-0.1,3.3-0.4
			c2.2,4,6.5,6.8,11.4,6.8c4.9,0,9.3-2.8,11.4-6.8c1.1,0.3,2.2,0.4,3.3,0.4c3.3,0,6.6-1.2,9-3.7c3.3-3.3,4.4-8,3.3-12.2
			C65.2,42.6,68,38.4,68,33.5z M59.5,44.1c1.1,4,0,8.4-3.1,11.4C54.1,57.8,51,59,47.9,59c-1,0-2.1-0.1-3.1-0.4
			C42.7,62.4,38.7,65,34,65s-8.7-2.6-10.8-6.4c-1,0.3-2.1,0.4-3.1,0.4c-3.1,0-6.2-1.1-8.5-3.5c-3.1-3.1-4.2-7.5-3.1-11.4
			c-3.9-2-6.5-6-6.5-10.6c0-4.6,2.6-8.6,6.5-10.6c-1.1-4,0-8.4,3.1-11.4C14,9.2,17,8,20.1,8c1,0,2.1,0.1,3.1,0.4
			C25.3,4.6,29.4,2,34,2s8.7,2.6,10.8,6.4c1-0.3,2.1-0.4,3.1-0.4c3.1,0,6.2,1.1,8.5,3.5c3.1,3.1,4.2,7.5,3.1,11.4
			c3.9,2,6.5,6,6.5,10.6C66,38.1,63.4,42.1,59.5,44.1z"/>
	</g>
</g>
</svg>
