<?xml version="1.0" encoding="utf-8"?>
<!-- Generator: Adobe Illustrator 21.1.0, SVG Export Plug-In . SVG Version: 6.00 Build 0)  -->
<svg version="1.1" id="Shape_220_1_" xmlns="http://www.w3.org/2000/svg" xmlns:xlink="http://www.w3.org/1999/xlink" x="0px"
	 y="0px" viewBox="0 0 70 45" style="enable-background:new 0 0 70 45;" xml:space="preserve">
<style type="text/css">
	.st0{fill-rule:evenodd;clip-rule:evenodd;fill:#939daa;}
</style>
<g id="Shape_220">
	<g>
		<path class="st0" d="M22.2,19.3c0,2.6,0,5.1,0,7.7c4.2,0.1,8.5,0.1,12.7,0.1c-1.9,9.5-14.6,12.6-21.4,6.4C6.6,28,6.9,16.1,14.1,11
			c5-4.1,12.2-3.1,17.3,0.5c2-1.9,3.8-3.8,5.6-5.9C32.8,2.2,27.7-0.2,22.2,0C10.8-0.4,0.2,9.8,0,21.4c-0.7,9.5,5.4,18.8,14.1,22.1
			c8.7,3.4,19.8,1.1,25.3-6.8c3.6-5,4.4-11.4,4-17.4C36.4,19.2,29.3,19.3,22.2,19.3z M69.9,19.3c-2.1,0-4.2,0-6.3,0
			c0-2.1,0-4.3,0-6.4h-6.3c0,2.1,0,4.3-0.1,6.4c-2.1,0-4.2,0-6.3,0v6.4c2.1,0,4.2,0,6.3,0.1c0,2.1,0,4.3,0,6.4h6.3
			c0-2.1,0-4.3,0-6.4c2.1,0,4.2,0,6.3-0.1C69.9,23.5,69.9,21.4,69.9,19.3z"/>
	</g>
</g>
</svg>
