<?xml version="1.0" encoding="utf-8"?>
<!-- Generator: Adobe Illustrator 21.1.0, SVG Export Plug-In . SVG Version: 6.00 Build 0)  -->
<svg version="1.1" id="Shape_229_copy_1_" xmlns="http://www.w3.org/2000/svg" xmlns:xlink="http://www.w3.org/1999/xlink" x="0px"
	 y="0px" viewBox="0 0 68 67" style="enable-background:new 0 0 68 67;" xml:space="preserve">
<style type="text/css">
	.st0{fill-rule:evenodd;clip-rule:evenodd;fill:#939daa;}
</style>
<g id="Shape_229_copy">
	<g>
		<path class="st0" d="M68,33.5c0-4.9-2.8-9.1-6.9-11.3c1.1-4.2,0-8.9-3.3-12.2c-2.5-2.5-5.8-3.7-9-3.7c-1.1,0-2.2,0.1-3.3,0.4
			C43.3,2.8,39,0,34,0c-4.9,0-9.3,2.8-11.4,6.8c-1.1-0.3-2.2-0.4-3.3-0.4c-3.3,0-6.6,1.2-9,3.7c-3.3,3.3-4.4,8-3.3,12.2
			C2.8,24.4,0,28.6,0,33.5s2.8,9.1,6.9,11.3c-1.1,4.2,0,8.9,3.3,12.2c2.5,2.5,5.8,3.7,9,3.7c1.1,0,2.2-0.1,3.3-0.4
			c2.2,4,6.5,6.8,11.4,6.8c4.9,0,9.3-2.8,11.4-6.8c1.1,0.3,2.2,0.4,3.3,0.4c3.3,0,6.6-1.2,9-3.7c3.3-3.3,4.4-8,3.3-12.2
			C65.2,42.6,68,38.4,68,33.5z M57.9,43.4c1,3.7,0,7.8-2.9,10.7c-2.2,2.2-5.1,3.2-8,3.2c-1,0-2-0.1-2.9-0.4c-1.9,3.6-5.7,6-10.1,6
			c-4.4,0-8.2-2.4-10.1-6c-1,0.2-1.9,0.4-2.9,0.4c-2.9,0-5.8-1.1-8-3.2c-2.9-2.9-3.9-7-2.9-10.7C6.5,41.5,4,37.8,4,33.5
			c0-4.3,2.5-8,6.1-9.9c-1-3.7,0-7.8,2.9-10.7c2.2-2.2,5.1-3.2,8-3.2c1,0,2,0.1,2.9,0.4c1.9-3.6,5.7-6,10.1-6c4.4,0,8.2,2.4,10.1,6
			c1-0.2,1.9-0.4,2.9-0.4c2.9,0,5.8,1.1,8,3.2c2.9,2.9,3.9,7,2.9,10.7c3.6,1.9,6.1,5.6,6.1,9.9C64,37.8,61.6,41.5,57.9,43.4z"/>
	</g>
</g>
</svg>
